Coordinates
version=1
nRows=41
nColumns=38
inDegrees=no

Units are S.I. units (second, meters, Newtons, ...)
If the header above contains a line with 'inDegrees', this indicates whether rotational values are in degrees (yes) or radians (no).

endheader
time	pelvis_tilt	pelvis_list	pelvis_rotation	pelvis_tx	pelvis_ty	pelvis_tz	hip_flexion_r	hip_adduction_r	hip_rotation_r	knee_angle_r	ankle_angle_r	subtalar_angle_r	mtp_angle_r	hip_flexion_l	hip_adduction_l	hip_rotation_l	knee_angle_l	ankle_angle_l	subtalar_angle_l	mtp_angle_l	lumbar_extension	lumbar_bending	lumbar_rotation	arm_flex_r	arm_add_r	arm_rot_r	elbow_flex_r	pro_sup_r	wrist_flex_r	wrist_dev_r	arm_flex_l	arm_add_l	arm_rot_l	elbow_flex_l	pro_sup_l	wrist_flex_l	wrist_dev_l
1.74	-2.75852	1.55023	1.32576	0.733523	1.0603	0.963109	-0.0517275	0.0346376	-0.0783749	0.0325936	0.0240626	0	0	0.301111	-0.0123903	-0.185044	0.0563944	-0.123901	0	0	-0.11698	0.0905771	0.19321	0.678584	0.0119069	0.478952	0.699353	1.5708	0	0	-0.22089	-0.144645	0.393004	0.544917	0.885032	0	0
1.75	-2.79163	1.54899	1.35932	0.735895	1.05375	0.962534	-0.0579162	0.0328035	-0.0785871	0.033722	0.0304637	0	0	0.292715	-0.00748458	-0.177726	0.030752	-0.120291	0	0	-0.11412	0.0905321	0.192493	0.676974	0.0195182	0.481418	0.703357	1.5708	0	0	-0.221891	-0.146056	0.393866	0.545573	0.885534	0	0
1.76	-2.79755	1.54816	1.3656	0.738284	1.04708	0.961944	-0.0642977	0.031359	-0.0789933	0.0358537	0.0373976	0	0	0.28564	-0.00379763	-0.173612	0.0124084	-0.113839	0	0	-0.111626	0.0908412	0.192154	0.674443	0.0267697	0.482977	0.707315	1.5708	0	0	-0.222984	-0.147561	0.392496	0.546395	0.88003	0	0
1.77	-2.78775	1.54763	1.35599	0.740691	1.04029	0.961343	-0.0704005	0.0300531	-0.0800066	0.0395482	0.0450117	0	0	0.280609	-0.00129297	-0.174744	0.00256232	-0.105527	0	0	-0.109359	0.0912519	0.192502	0.670854	0.0332443	0.483999	0.711768	1.5708	0	0	-0.223949	-0.149176	0.391413	0.547233	0.877229	0	0
1.78	-2.77669	1.54759	1.34508	0.743149	1.03339	0.960763	-0.0761094	0.028507	-0.0814752	0.0452034	0.0531993	0	0	0.276899	0.0004471	-0.179078	0.000218932	-0.0978408	0	0	-0.107472	0.0913803	0.193349	0.666204	0.0390929	0.484546	0.716693	1.5708	0	0	-0.224782	-0.151107	0.39057	0.548472	0.875737	0	0
1.79	-2.77133	1.54829	1.34013	0.745694	1.02642	0.960228	-0.0814854	0.0264669	-0.0837514	0.0532816	0.0625742	0	0	0.274213	0.00187751	-0.186286	0.00496696	-0.0930065	0	0	-0.106247	0.0909122	0.194308	0.66067	0.0446116	0.484071	0.721855	1.5708	0	0	-0.225459	-0.153532	0.390739	0.550413	0.875119	0	0
1.8	-2.7588	1.54921	1.32813	0.748286	1.01938	0.959659	-0.0855745	0.0242725	-0.0869856	0.0645684	0.0731385	0	0	0.27286	0.00266935	-0.196058	0.0159532	-0.0928706	0	0	-0.105101	0.090354	0.195332	0.65439	0.0495724	0.483187	0.727	1.5708	0	0	-0.226247	-0.156298	0.391361	0.553115	0.875697	0	0
1.81	-2.73677	1.55	1.30638	0.750947	1.01225	0.958992	-0.0878841	0.0220871	-0.0904294	0.0790613	0.0847533	0	0	0.272226	0.00276923	-0.207951	0.0307884	-0.0972336	0	0	-0.103569	0.0899496	0.196832	0.647345	0.0536837	0.482749	0.732253	1.5708	0	0	-0.227556	-0.159419	0.391315	0.556931	0.876148	0	0
1.82	-2.70912	1.55088	1.27858	0.753709	1.00497	0.958248	-0.0889518	0.0195525	-0.0942277	0.0965755	0.0974166	0	0	0.270658	0.00244888	-0.221212	0.0456973	-0.1031	0	0	-0.10172	0.0895666	0.198954	0.639383	0.0568987	0.483121	0.737676	1.5708	0	0	-0.229447	-0.162864	0.391227	0.561703	0.875993	0	0
1.83	-2.68219	1.55186	1.25115	0.756527	0.997589	0.957449	-0.0883406	0.0164321	-0.0987707	0.11777	0.111086	0	0	0.267364	0.00215611	-0.233342	0.0575101	-0.108567	0	0	-0.0996759	0.0888931	0.201512	0.630503	0.0595382	0.483451	0.743384	1.5708	0	0	-0.231712	-0.166987	0.391622	0.567463	0.875329	0	0
1.84	-2.66365	1.55266	1.23225	0.759475	0.990192	0.95658	-0.0859216	0.0126962	-0.104027	0.142164	0.125463	0	0	0.262572	0.00272019	-0.241023	0.0654582	-0.112137	0	0	-0.0972064	0.0879356	0.20412	0.620782	0.0613939	0.484013	0.749822	1.5708	0	0	-0.23415	-0.171464	0.39234	0.573995	0.874486	0	0
1.85	-2.66674	1.55337	1.23554	0.762611	0.982845	0.95566	-0.0819483	0.00807738	-0.110117	0.169243	0.140051	0	0	0.256859	0.00444321	-0.244537	0.07054	-0.117304	0	0	-0.0944304	0.0865082	0.206087	0.610746	0.0625608	0.485116	0.756488	1.5708	0	0	-0.236764	-0.17617	0.392993	0.581231	0.873598	0	0
1.86	-2.72782	1.55451	1.29761	0.765939	0.975629	0.954755	-0.0767169	0.00174581	-0.117373	0.198915	0.154519	0	0	0.250209	0.00803162	-0.244434	0.0725047	-0.129295	0	0	-0.0920154	0.0839294	0.207004	0.600816	0.0630325	0.487217	0.762618	1.5708	0	0	-0.239102	-0.181241	0.395403	0.589086	0.874874	0	0
1.87	-2.91269	1.55602	1.4847	0.769489	0.968646	0.954002	-0.0701393	-0.00720275	-0.125482	0.231437	0.1682	0	0	0.243262	0.0145731	-0.240155	0.0723148	-0.145269	0	0	-0.0903713	0.0792318	0.206475	0.5909	0.0634418	0.488962	0.768128	1.5708	0	0	-0.24054	-0.186692	0.399112	0.596974	0.878585	0	0
1.88	2.98394	1.55668	1.87488	0.773242	0.961966	0.953588	-0.0622317	-0.0193155	-0.133977	0.266799	0.179957	0	0	0.237636	0.0240843	-0.233558	0.0758198	-0.152334	0	0	-0.0898682	0.0715552	0.204305	0.581104	0.0641396	0.489802	0.772551	1.5708	0	0	-0.240629	-0.192455	0.403662	0.604134	0.884742	0	0
1.89	2.51106	1.55418	2.35267	0.777042	0.955595	0.953576	-0.0528587	-0.0339151	-0.142524	0.305027	0.18891	0	0	0.234759	0.0351666	-0.228819	0.0874656	-0.144972	0	0	-0.0907945	0.0612471	0.200589	0.571745	0.0653119	0.490736	0.775662	1.5708	0	0	-0.239222	-0.198782	0.409411	0.610569	0.893504	0	0
1.9	2.18355	1.54855	2.68603	0.780875	0.949416	0.953913	-0.042223	-0.0496338	-0.150228	0.345446	0.194095	0	0	0.233893	0.0463145	-0.226361	0.105032	-0.130316	0	0	-0.0926609	0.0500605	0.195613	0.562597	0.0666061	0.492896	0.77787	1.5708	0	0	-0.236838	-0.205425	0.416436	0.61653	0.904381	0	0
1.91	2.1684	1.54167	2.70674	0.784791	0.943191	0.954293	-0.0243214	-0.0640702	-0.156079	0.38953	0.195077	0	0	0.239175	0.055033	-0.227174	0.125664	-0.1157	0	0	-0.0908024	0.0448503	0.186141	0.554594	0.0701375	0.503267	0.776093	1.5708	0	0	-0.227458	-0.184595	0.145394	0.571783	0.268811	0	0
1.92	1.98055	1.53653	2.90117	0.7884	0.937097	0.954847	-0.0134322	-0.0788367	-0.161203	0.433735	0.193762	0	0	0.235075	0.064572	-0.22577	0.141361	-0.10492	0	0	-0.0932218	0.0322427	0.185288	0.541394	0.0673648	0.502266	0.783898	1.5708	0	0	-0.232897	-0.21906	0.43035	0.628762	0.937799	0	0
1.93	1.92574	1.53256	2.96168	0.792173	0.930927	0.955493	0.000726551	-0.0909929	-0.162196	0.476916	0.187189	0	0	0.231201	0.0720622	-0.223055	0.152096	-0.096649	0	0	-0.093751	0.0266663	0.180738	0.529832	0.0657347	0.509329	0.788696	1.5708	0	0	-0.231326	-0.224974	0.43713	0.635055	0.946011	0	0
1.94	2.00209	1.52963	2.89007	0.796005	0.924764	0.955919	0.0211381	-0.101253	-0.160953	0.52067	0.177443	0	0	0.231052	0.0773567	-0.220783	0.160532	-0.0879614	0	0	-0.0900441	0.0270751	0.173186	0.519577	0.0646873	0.523851	0.791845	1.5708	0	0	-0.226144	-0.205446	0.180096	0.60108	0.28591	0	0
1.95	1.96483	1.52673	2.93212	0.799455	0.918864	0.956165	0.0367651	-0.112509	-0.159935	0.563822	0.167703	0	0	0.224703	0.0835409	-0.218632	0.165466	-0.0797504	0	0	-0.0886788	0.019269	0.174721	0.503868	0.058819	0.522385	0.804988	1.5708	0	0	-0.230879	-0.238465	0.454223	0.654286	0.968942	0	0
1.96	2.01532	1.52438	2.88547	0.802976	0.913004	0.956263	0.0555871	-0.122008	-0.15698	0.603926	0.154467	0	0	0.221485	0.0884433	-0.216887	0.168051	-0.0738954	0	0	-0.0845843	0.0166813	0.172475	0.489754	0.0549758	0.526694	0.815429	1.5708	0	0	-0.232101	-0.243211	0.45406	0.663128	0.974655	0	0
1.97	2.07603	1.52182	2.82847	0.806433	0.907328	0.956195	0.0742863	-0.131164	-0.154054	0.641349	0.140718	0	0	0.2194	0.0931338	-0.216215	0.170482	-0.0683878	0	0	-0.079857	0.0141435	0.170084	0.476232	0.0507622	0.531222	0.826273	1.5708	0	0	-0.233817	-0.248365	0.453965	0.673172	0.978675	0	0
1.98	2.13627	1.5194	2.77215	0.809843	0.901807	0.95608	0.0916323	-0.139362	-0.151379	0.675116	0.128275	0	0	0.217469	0.0974739	-0.215253	0.172563	-0.0624369	0	0	-0.0751024	0.0119568	0.16709	0.463221	0.0468081	0.534952	0.836897	1.5708	0	0	-0.235351	-0.252795	0.453275	0.68199	0.982032	0	0
1.99	2.18501	1.5171	2.72741	0.813238	0.896381	0.956013	0.106729	-0.14684	-0.149227	0.704439	0.118083	0	0	0.21428	0.101921	-0.212844	0.173153	-0.0564232	0	0	-0.0706402	0.00991598	0.163638	0.450593	0.0432398	0.537688	0.84704	1.5708	0	0	-0.236971	-0.256658	0.451956	0.689907	0.986358	0	0
2	2.21336	1.51493	2.70233	0.816556	0.890966	0.956047	0.119375	-0.154717	-0.14887	0.729563	0.110653	0	0	0.208357	0.106844	-0.209218	0.17064	-0.0512444	0	0	-0.0670663	0.00776734	0.160545	0.438241	0.0397732	0.540073	0.85686	1.5708	0	0	-0.238344	-0.25956	0.449064	0.695487	0.990409	0	0
2.01	2.22266	1.51438	2.69547	0.819782	0.885557	0.956371	0.127034	-0.159293	-0.145778	0.746105	0.104732	0	0	0.199084	0.110701	-0.204843	0.165397	-0.0465925	0	0	-0.0656502	0.00691199	0.157858	0.42649	0.0358807	0.541666	0.867003	1.5708	0	0	-0.239255	-0.261076	0.444483	0.698589	0.994749	0	0
2.02	2.22016	1.51466	2.70006	0.822911	0.880132	0.956834	0.131807	-0.163584	-0.145348	0.75709	0.100979	0	0	0.187298	0.114214	-0.199406	0.157549	-0.0425518	0	0	-0.0655717	0.0064901	0.154985	0.415055	0.0322655	0.542785	0.876875	1.5708	0	0	-0.240287	-0.261579	0.437924	0.700265	1.00156	0	0
2.03	2.21561	1.51594	2.70688	0.826049	0.874715	0.957432	0.13371	-0.166522	-0.146361	0.761774	0.0985942	0	0	0.173988	0.117044	-0.193067	0.147971	-0.0390847	0	0	-0.0659962	0.00720313	0.151405	0.403947	0.0285971	0.544524	0.886029	1.5708	0	0	-0.241434	-0.261133	0.430755	0.700722	1.00879	0	0
2.04	2.21835	1.51778	2.70694	0.829232	0.869327	0.958103	0.13375	-0.168435	-0.148937	0.76102	0.0985087	0	0	0.160118	0.119363	-0.185458	0.137032	-0.0366365	0	0	-0.0661408	0.00892185	0.146887	0.393197	0.0248428	0.546765	0.894475	1.5708	0	0	-0.242698	-0.259885	0.42341	0.700236	1.01443	0	0
2.05	2.23938	1.51968	2.68893	0.832406	0.863988	0.958766	0.133281	-0.169291	-0.151994	0.755886	0.101949	0	0	0.146857	0.121074	-0.177632	0.12539	-0.0350836	0	0	-0.0652225	0.011186	0.141773	0.382549	0.0213028	0.548553	0.902356	1.5708	0	0	-0.244783	-0.258091	0.415503	0.699707	1.01996	0	0
2.06	2.27786	1.52125	2.65392	0.83557	0.858707	0.959383	0.132323	-0.169739	-0.156419	0.746306	0.108129	0	0	0.134264	0.12261	-0.169207	0.113034	-0.034492	0	0	-0.0632433	0.0135093	0.135866	0.371783	0.0176389	0.550356	0.910406	1.5708	0	0	-0.248052	-0.256645	0.407193	0.699697	1.02223	0	0
2.07	2.33967	1.5224	2.59565	0.838653	0.853453	0.9599	0.131164	-0.169506	-0.161836	0.732337	0.114977	0	0	0.12258	0.123728	-0.160603	0.100007	-0.0346302	0	0	-0.0600226	0.0160088	0.129859	0.360366	0.0133495	0.552906	0.919312	1.5708	0	0	-0.251847	-0.255356	0.400193	0.700001	1.02391	0	0
2.08	2.46149	1.52248	2.47633	0.841841	0.848136	0.960385	0.131597	-0.167777	-0.166869	0.713139	0.12018	0	0	0.113242	0.123927	-0.152244	0.0857963	-0.0360837	0	0	-0.0547092	0.0228059	0.120401	0.350087	0.00894974	0.563502	0.926684	1.5708	0	0	-0.25558	-0.232671	0.167126	0.683248	0.35461	0	0
2.09	2.50383	1.52288	2.43658	0.844737	0.842987	0.960718	0.127847	-0.16836	-0.174676	0.692087	0.126761	0	0	0.100089	0.125691	-0.143674	0.0711677	-0.0370639	0	0	-0.0507209	0.0212525	0.120643	0.333511	0.00064144	0.563561	0.941271	1.5708	0	0	-0.256284	-0.254977	0.402046	0.702713	1.01002	0	0
2.1	2.59238	1.52237	2.35015	0.847612	0.837845	0.96105	0.124963	-0.167287	-0.182565	0.666016	0.130884	0	0	0.0894644	0.126174	-0.135084	0.0569911	-0.0383789	0	0	-0.0457448	0.0236288	0.116352	0.318771	-0.00673311	0.57091	0.954141	1.5708	0	0	-0.259244	-0.255038	0.401357	0.704355	1.02061	0	0
2.11	2.68182	1.5211	2.26252	0.85037	0.832779	0.961295	0.121653	-0.165863	-0.1909	0.636578	0.133814	0	0	0.0799798	0.126448	-0.127529	0.0439405	-0.0391577	0	0	-0.0404949	0.0258218	0.112374	0.303512	-0.0145014	0.57756	0.969031	1.5708	0	0	-0.26202	-0.254241	0.398217	0.704438	1.01829	0	0
2.12	2.76829	1.51919	2.17767	0.852978	0.827775	0.961422	0.118161	-0.164134	-0.200132	0.604799	0.135867	0	0	0.0718951	0.126357	-0.120968	0.0328183	-0.0389129	0	0	-0.0350014	0.0276461	0.108656	0.287686	-0.0214862	0.581234	0.985873	1.5708	0	0	-0.264682	-0.254299	0.397039	0.70543	1.01443	0	0
2.13	2.85384	1.51694	2.094	0.855488	0.822825	0.961472	0.113816	-0.161556	-0.210455	0.569918	0.136872	0	0	0.0652353	0.125566	-0.115256	0.0239777	-0.0375653	0	0	-0.0293469	0.0295185	0.104726	0.271888	-0.027764	0.58267	1.00398	1.5708	0	0	-0.267306	-0.255871	0.399506	0.70751	1.01498	0	0
2.14	2.93858	1.51435	2.01131	0.857827	0.818	0.96145	0.108981	-0.157991	-0.221607	0.532881	0.137338	0	0	0.0605285	0.123929	-0.110487	0.0182891	-0.0346156	0	0	-0.0237991	0.031434	0.100679	0.256695	-0.0332553	0.583052	1.02246	1.5708	0	0	-0.269342	-0.258049	0.40412	0.709741	1.0212	0	0
